<mxfile host="app.diagrams.net" modified="2023-05-23T16:11:52.908Z" agent="Mozilla/5.0 (X11; Ubuntu; Linux x86_64; rv:109.0) Gecko/20100101 Firefox/113.0" etag="qo1hLTIZvHXuHpt5LD4L" version="21.3.3" type="device">
  <diagram name="Page-1" id="b-2Lzgdk8wa1CBXWcmCF">
    <mxGraphModel dx="574" dy="318" grid="1" gridSize="10" guides="1" tooltips="1" connect="1" arrows="1" fold="1" page="1" pageScale="1" pageWidth="850" pageHeight="1100" math="0" shadow="0">
      <root>
        <mxCell id="0" />
        <mxCell id="1" parent="0" />
        <mxCell id="qj_Laeiu8y0Rf4c89ler-45" value="" style="ellipse;whiteSpace=wrap;html=1;aspect=fixed;" vertex="1" parent="1">
          <mxGeometry x="430" y="270" width="20" height="20" as="geometry" />
        </mxCell>
        <mxCell id="qj_Laeiu8y0Rf4c89ler-21" value="" style="verticalLabelPosition=bottom;verticalAlign=top;html=1;shape=mxgraph.basic.arc;startAngle=0.07309069026330234;endAngle=0.10913724128472321;strokeWidth=2;fillColor=#FF0000;strokeColor=#FF0000;" vertex="1" parent="1">
          <mxGeometry x="260" y="390" width="100" height="100" as="geometry" />
        </mxCell>
        <mxCell id="qj_Laeiu8y0Rf4c89ler-13" value="" style="verticalLabelPosition=bottom;verticalAlign=top;html=1;shape=mxgraph.basic.arc;startAngle=0.08118903317540314;endAngle=0.19192227646941762;strokeWidth=2;fillColor=#FF0000;strokeColor=#FF0000;" vertex="1" parent="1">
          <mxGeometry x="130" y="330" width="100" height="100" as="geometry" />
        </mxCell>
        <mxCell id="qj_Laeiu8y0Rf4c89ler-2" value="" style="endArrow=classic;html=1;rounded=0;strokeWidth=3;" edge="1" parent="1">
          <mxGeometry width="50" height="50" relative="1" as="geometry">
            <mxPoint x="180" y="380" as="sourcePoint" />
            <mxPoint x="440" y="280" as="targetPoint" />
          </mxGeometry>
        </mxCell>
        <mxCell id="qj_Laeiu8y0Rf4c89ler-6" value="" style="endArrow=none;dashed=1;html=1;dashPattern=1 3;strokeWidth=2;rounded=0;" edge="1" parent="1">
          <mxGeometry width="50" height="50" relative="1" as="geometry">
            <mxPoint x="140" y="380" as="sourcePoint" />
            <mxPoint x="220" y="380" as="targetPoint" />
          </mxGeometry>
        </mxCell>
        <mxCell id="qj_Laeiu8y0Rf4c89ler-3" value="" style="endArrow=classic;html=1;rounded=0;strokeWidth=3;strokeColor=#FF0000;" edge="1" parent="1">
          <mxGeometry width="50" height="50" relative="1" as="geometry">
            <mxPoint x="180" y="381.7" as="sourcePoint" />
            <mxPoint x="235" y="280" as="targetPoint" />
          </mxGeometry>
        </mxCell>
        <mxCell id="qj_Laeiu8y0Rf4c89ler-18" value="" style="endArrow=classic;html=1;rounded=0;strokeWidth=3;" edge="1" parent="1">
          <mxGeometry width="50" height="50" relative="1" as="geometry">
            <mxPoint x="310" y="440" as="sourcePoint" />
            <mxPoint x="440" y="280" as="targetPoint" />
          </mxGeometry>
        </mxCell>
        <mxCell id="qj_Laeiu8y0Rf4c89ler-19" value="" style="endArrow=classic;html=1;rounded=0;strokeWidth=3;strokeColor=#FF0000;" edge="1" parent="1">
          <mxGeometry width="50" height="50" relative="1" as="geometry">
            <mxPoint x="310" y="440" as="sourcePoint" />
            <mxPoint x="360" y="340" as="targetPoint" />
          </mxGeometry>
        </mxCell>
        <mxCell id="qj_Laeiu8y0Rf4c89ler-20" value="" style="endArrow=classic;html=1;rounded=0;entryX=1.022;entryY=0.311;entryDx=0;entryDy=0;entryPerimeter=0;strokeColor=#FF3333;strokeWidth=2;" edge="1" parent="1">
          <mxGeometry width="50" height="50" relative="1" as="geometry">
            <mxPoint x="310" y="440" as="sourcePoint" />
            <mxPoint x="337.5077561780579" y="452.86129819415146" as="targetPoint" />
          </mxGeometry>
        </mxCell>
        <mxCell id="qj_Laeiu8y0Rf4c89ler-22" value="&lt;font style=&quot;font-size: 20px;&quot;&gt;e&lt;/font&gt;" style="text;html=1;strokeColor=none;fillColor=none;align=center;verticalAlign=middle;whiteSpace=wrap;rounded=0;" vertex="1" parent="1">
          <mxGeometry x="200" y="320" width="50" height="30" as="geometry" />
        </mxCell>
        <mxCell id="qj_Laeiu8y0Rf4c89ler-24" value="&lt;font style=&quot;font-size: 20px;&quot;&gt;e&#39;&lt;/font&gt;" style="text;html=1;strokeColor=none;fillColor=none;align=center;verticalAlign=middle;whiteSpace=wrap;rounded=0;" vertex="1" parent="1">
          <mxGeometry x="330" y="360" width="50" height="30" as="geometry" />
        </mxCell>
        <mxCell id="qj_Laeiu8y0Rf4c89ler-26" value="" style="endArrow=none;dashed=1;html=1;dashPattern=1 3;strokeWidth=2;rounded=0;" edge="1" parent="1">
          <mxGeometry width="50" height="50" relative="1" as="geometry">
            <mxPoint x="280" y="440" as="sourcePoint" />
            <mxPoint x="360" y="440" as="targetPoint" />
          </mxGeometry>
        </mxCell>
        <mxCell id="qj_Laeiu8y0Rf4c89ler-28" value="" style="endArrow=classic;html=1;rounded=0;strokeColor=#FF3333;strokeWidth=2;" edge="1" parent="1" target="qj_Laeiu8y0Rf4c89ler-21">
          <mxGeometry width="50" height="50" relative="1" as="geometry">
            <mxPoint x="180" y="380" as="sourcePoint" />
            <mxPoint x="207.5077561780579" y="392.86129819415146" as="targetPoint" />
          </mxGeometry>
        </mxCell>
        <mxCell id="qj_Laeiu8y0Rf4c89ler-29" value="Vf" style="text;html=1;strokeColor=none;fillColor=none;align=center;verticalAlign=middle;whiteSpace=wrap;rounded=0;" vertex="1" parent="1">
          <mxGeometry x="210" y="260" width="20" height="20" as="geometry" />
        </mxCell>
        <mxCell id="qj_Laeiu8y0Rf4c89ler-33" value="" style="endArrow=classic;html=1;rounded=0;fontSize=5;endSize=2;exitX=0.25;exitY=0;exitDx=0;exitDy=0;" edge="1" parent="1" source="qj_Laeiu8y0Rf4c89ler-29">
          <mxGeometry width="50" height="50" relative="1" as="geometry">
            <mxPoint x="212.5" y="260" as="sourcePoint" />
            <mxPoint x="227.5" y="260" as="targetPoint" />
          </mxGeometry>
        </mxCell>
        <mxCell id="qj_Laeiu8y0Rf4c89ler-37" value="" style="endArrow=classic;html=1;rounded=0;fontSize=5;endSize=2;" edge="1" parent="1">
          <mxGeometry width="50" height="50" relative="1" as="geometry">
            <mxPoint x="217.5" y="410" as="sourcePoint" />
            <mxPoint x="232.5" y="410" as="targetPoint" />
          </mxGeometry>
        </mxCell>
        <mxCell id="qj_Laeiu8y0Rf4c89ler-38" value="Vs" style="text;html=1;strokeColor=none;fillColor=none;align=center;verticalAlign=middle;whiteSpace=wrap;rounded=0;" vertex="1" parent="1">
          <mxGeometry x="215" y="410" width="20" height="20" as="geometry" />
        </mxCell>
        <mxCell id="qj_Laeiu8y0Rf4c89ler-39" value="P = (a,b)" style="text;html=1;strokeColor=none;fillColor=none;align=center;verticalAlign=middle;whiteSpace=wrap;rounded=0;" vertex="1" parent="1">
          <mxGeometry x="130" y="380" width="60" height="30" as="geometry" />
        </mxCell>
        <mxCell id="qj_Laeiu8y0Rf4c89ler-40" value="P&#39; = (a&#39;,b&#39;)" style="text;html=1;strokeColor=none;fillColor=none;align=center;verticalAlign=middle;whiteSpace=wrap;rounded=0;" vertex="1" parent="1">
          <mxGeometry x="250" y="440" width="70" height="30" as="geometry" />
        </mxCell>
        <mxCell id="qj_Laeiu8y0Rf4c89ler-43" value="" style="ellipse;whiteSpace=wrap;html=1;aspect=fixed;" vertex="1" parent="1">
          <mxGeometry x="175" y="375" width="10" height="10" as="geometry" />
        </mxCell>
        <mxCell id="qj_Laeiu8y0Rf4c89ler-44" value="" style="ellipse;whiteSpace=wrap;html=1;aspect=fixed;" vertex="1" parent="1">
          <mxGeometry x="305" y="435" width="10" height="10" as="geometry" />
        </mxCell>
        <mxCell id="qj_Laeiu8y0Rf4c89ler-48" value="T = (c,d) " style="text;html=1;strokeColor=none;fillColor=none;align=center;verticalAlign=middle;whiteSpace=wrap;rounded=0;" vertex="1" parent="1">
          <mxGeometry x="400" y="250" width="60" height="20" as="geometry" />
        </mxCell>
      </root>
    </mxGraphModel>
  </diagram>
</mxfile>
